Coordinates
version=1
nRows=17
nColumns=24
inDegrees=yes

Units are S.I. units (second, meters, Newtons, ...)
Angles are in degrees.

endheader
time	pelvis_tilt	pelvis_list	pelvis_rotation	pelvis_tx	pelvis_ty	pelvis_tz	hip_flexion_r	hip_adduction_r	hip_rotation_r	knee_angle_r	ankle_angle_r	subtalar_angle_r	mtp_angle_r	hip_flexion_l	hip_adduction_l	hip_rotation_l	knee_angle_l	ankle_angle_l	subtalar_angle_l	mtp_angle_l	lumbar_extension	lumbar_bending	lumbar_rotation
      6.01000000	     37.79477554	      1.06315310	      2.61036684	      1.24023003	      0.65452388	     -0.27150403	    -55.10809764	      1.71908061	     -5.32664828	    -14.57602576	     22.00156715	     11.18309146	      0.00000000	    -13.82452138	     -0.97080821	     -5.49761421	     -8.45452982	      8.88658626	     13.01714317	      0.00000000	    -63.08690785	      1.65412210	     -1.71425875
      6.01500000	     37.91537130	      1.16160613	      2.36996750	      1.24634945	      0.65457215	     -0.27220607	    -54.98936504	      1.29929256	     -5.28047451	    -16.13329520	     21.30488172	     11.31104743	      0.00000000	    -14.02291147	     -0.74362149	     -5.27639104	     -9.08494200	      8.42349930	     13.11834951	      0.00000000	    -63.14024681	      1.41450762	     -1.84933191
      6.02000000	     38.04092318	      1.26598994	      2.08920623	      1.25249871	      0.65472824	     -0.27286905	    -54.77779678	      0.84156691	     -5.23390498	    -17.85227626	     20.48456415	     11.36494991	      0.00000000	    -14.26169050	     -0.49101509	     -5.08390445	     -9.75913709	      7.94223142	     13.09464664	      0.00000000	    -63.18910231	      1.13597548	     -2.00917631
      6.02500000	     38.15876886	      1.39566135	      1.76493700	      1.25867745	      0.65495418	     -0.27351978	    -54.48391837	      0.33555681	     -5.13798861	    -19.67530261	     19.51579494	     11.29158705	      0.00000000	    -14.47436625	     -0.18733094	     -4.90437775	    -10.58155387	      7.51902872	     12.91902856	      0.00000000	    -63.22977511	      0.80718913	     -2.11480446
      6.03000000	     38.30140239	      1.56016921	      1.52867446	      1.26481192	      0.65525824	     -0.27421096	    -54.15370678	     -0.13297156	     -5.22914169	    -21.57936773	     18.35848312	     11.30946396	      0.00000000	    -14.71259184	      0.12127791	     -4.72104250	    -11.45074026	      7.10697423	     12.88849948	      0.00000000	    -63.30337441	      0.53799252	     -2.32672922
      6.03500000	     38.38961508	      1.74929122	      1.26943178	      1.27098561	      0.65558743	     -0.27488356	    -53.67990014	     -0.62569394	     -5.25843800	    -23.59714759	     17.05696553	     11.07843317	      0.00000000	    -14.88792604	      0.48369793	     -4.47631214	    -12.39656741	      6.76024052	     12.56714871	      0.00000000	    -63.31721938	      0.22319404	     -2.50928971
      6.04000000	     38.47522959	      1.95298452	      1.05491833	      1.27713384	      0.65597339	     -0.27559587	    -53.13163620	     -1.10674517	     -5.39739381	    -25.69126272	     15.56418693	     10.85672670	      0.00000000	    -15.07668993	      0.85198645	     -4.23659353	    -13.33943683	      6.46320866	     12.28006902	      0.00000000	    -63.33210964	     -0.05691821	     -2.72796482
      6.04500000	     38.55205129	      2.17942319	      0.86291910	      1.28329051	      0.65640254	     -0.27629920	    -52.51123616	     -1.59128026	     -5.60273868	    -27.84071520	     13.89767332	     10.56461620	      0.00000000	    -15.28532421	      1.24253353	     -3.98979203	    -14.25312542	      6.23324494	     11.93963608	      0.00000000	    -63.33622624	     -0.33808075	     -2.96237514
      6.05000000	     38.61611268	      2.41470535	      0.67925033	      1.28945126	      0.65687501	     -0.27703401	    -51.81228514	     -2.09114327	     -5.86070762	    -30.03734237	     12.06392111	     10.17348009	      0.00000000	    -15.51223257	      1.65097807	     -3.72431181	    -15.12831145	      6.07707061	     11.54250861	      0.00000000	    -63.32406466	     -0.60502749	     -3.20236353
      6.05500000	     38.66544960	      2.66528427	      0.51305872	      1.29558733	      0.65737778	     -0.27779396	    -51.03149555	     -2.60132565	     -6.16373930	    -32.27482354	     10.08164321	      9.64757714	      0.00000000	    -15.76026622	      2.07984999	     -3.45444203	    -15.93822984	      5.99231253	     11.08110246	      0.00000000	    -63.30614984	     -0.86694322	     -3.44082083
      6.06000000	     38.69335780	      2.91231092	      0.36028116	      1.30171652	      0.65790998	     -0.27856159	    -50.16827509	     -3.11066902	     -6.48856507	    -34.53143079	      7.96957255	      9.00195137	      0.00000000	    -16.02701933	      2.50815935	     -3.16295170	    -16.67518347	      5.99145027	     10.58671127	      0.00000000	    -63.26087146	     -1.10833688	     -3.67364148
      6.06500000	     38.70168252	      3.16030339	      0.22553565	      1.30781220	      0.65845871	     -0.27932460	    -49.22750819	     -3.61792969	     -6.83724988	    -36.79758792	      5.77384406	      8.21781185	      0.00000000	    -16.31614340	      2.93523951	     -2.86948817	    -17.32354331	      6.06939677	     10.06256391	      0.00000000	    -63.20491354	     -1.34846403	     -3.89857323
      6.07000000	     38.69360160	      3.40332545	      0.09795191	      1.31388390	      0.65903143	     -0.28008790	    -48.22114887	     -4.12798015	     -7.19565354	    -39.05171402	      3.53246888	      7.29989637	      0.00000000	    -16.63642420	      3.35881996	     -2.57853812	    -17.87601719	      6.21660932	      9.52558579	      0.00000000	    -63.13538611	     -1.57947289	     -4.11450319
      6.07500000	     38.67184798	      3.63882428	     -0.02822996	      1.31990634	      0.65962160	     -0.28086529	    -47.15334039	     -4.64428660	     -7.55073525	    -41.28466527	      1.30468897	      6.23277023	      0.00000000	    -16.98729061	      3.77905928	     -2.29211107	    -18.33316029	      6.42221045	      8.98279175	      0.00000000	    -63.06018286	     -1.79157587	     -4.31558809
      6.08000000	     38.62949579	      3.85464470	     -0.14614117	      1.32587263	      0.66022107	     -0.28162908	    -46.02190973	     -5.14155249	     -7.87958285	    -43.48471572	     -0.84868628	      5.04238345	      0.00000000	    -17.35281765	      4.17747900	     -2.00449107	    -18.71043855	      6.69154283	      8.45442849	      0.00000000	    -62.97154064	     -1.98775069	     -4.49650444
      6.08500000	     38.44428860	      3.96150479	     -0.20847397	      1.33173468	      0.66076821	     -0.28246258	    -44.65973504	     -5.51523539	     -8.10529036	    -45.68183604	     -2.91315251	      3.75091925	      0.00000000	    -17.56251177	      4.45071856	     -1.70865030	    -19.07426062	      7.12604992	      7.99484633	      0.00000000	    -62.75878641	     -2.05375582	     -4.57742502
      6.09000000	     38.31919079	      4.14182137	     -0.32096222	      1.33757316	      0.66137690	     -0.28319080	    -43.36235623	     -5.98048514	     -8.35851249	    -47.80507344	     -4.72717485	      2.43847475	      0.00000000	    -17.90862226	      4.80438721	     -1.47399402	    -19.28487149	      7.43224649	      7.56179708	      0.00000000	    -62.61286459	     -2.22424019	     -4.72800371
